# WaveFront *.obj file (generated by CINEMA 4D)

mtllib ./board.mtl

v -50 0 15
v -50 4 15
v 50 0 15
v 50 4 15
v 50 0 -15
v 50 4 -15
v -50 0 -15
v -50 4 -15
# 8 vertices

vn 0 0 1
vn 1 0 0
vn 0 0 -1
vn -1 0 0
vn 0 1 0
vn 0 -1 0
# 6 normals

vt 0.00825199484825 0.15170001983643 0
vt 0.00825199484825 0.2014571428299 0
vt 0.99174803495407 0.2014571428299 0
vt 0.99174803495407 0.15170001983643 0
vt 0.00825199484825 0.01043713092804 0
vt 0.00825199484825 0.0601943731308 0
vt 0.3033007979393 0.0601943731308 0
vt 0.3033007979393 0.01043713092804 0
vt 0.00825199484825 0.08106863498688 0
vt 0.00825199484825 0.13082575798035 0
vt 0.99174803495407 0.13082575798035 0
vt 0.99174803495407 0.08106863498688 0
vt 0.3198047876358 0.01043713092804 0
vt 0.3198047876358 0.0601943731308 0
vt 0.61485356092453 0.0601943731308 0
vt 0.61485356092453 0.01043713092804 0
vt 0.00825199484825 0.61638432741165 0
vt 0.00825199484825 0.98956286907196 0
vt 0.99174803495407 0.98956286907196 0
vt 0.99174803495407 0.61638432741165 0
vt 0.00825199484825 0.22233152389526 0
vt 0.00825199484825 0.59551000595093 0
vt 0.99174803495407 0.59551000595093 0
vt 0.99174803495407 0.22233152389526 0
# 24 texture coordinates

o board
usemtl board
f 3/4/1 4/3/1 2/2/1 1/1/1
f 5/8/2 6/7/2 4/6/2 3/5/2
f 7/12/3 8/11/3 6/10/3 5/9/3
f 1/16/4 2/15/4 8/14/4 7/13/4
f 4/20/5 6/19/5 8/18/5 2/17/5
f 5/24/6 3/23/6 1/22/6 7/21/6

