# WaveFront *.obj file (generated by CINEMA 4D)

mtllib ./comp.mtl

v -15 0 10
v -15 3 10
v 15 0 10
v 15 3 10
v 15 0 -10
v 15 3 -10
v -15 0 -10
v -15 3 -10
v -8 3 3
v 8 3 3
v 8 3 -3
v -8 3 -3
v -8 13.00375652313232 3
v 8 13.00375652313232 3
v 8 13.00375652313232 -3
v -8 13.00375652313232 -3
v -36 15 3
v 36 15 3
v 36 15 -3
v -36 15 -3
v 38 13.00375652313232 3
v 38 13.00375652313232 -3
v 38 15 3
v 38 15 -3
v -38 13.00375652313232 3
v -38 13.00375652313232 -3
v -38 15 3
v -38 15 -3
v -36 55 3
v 36 55 3
v 36 55 -3
v -36 55 -3
v 38 55 3
v 38 55 -3
v -38 55 3
v -38 55 -3
v -36 57 3
v 36 57 3
v 36 57 -3
v -36 57 -3
v 38 57 3
v 38 57 -3
v -38 57 3
v -38 57 -3
# 44 vertices

vn 0 0 1
vn 1 0 0
vn 0 0 -1
vn -1 0 0
vn 0 1 0
vn 0 -1 0
# 6 normals

vt 0.00828168541193 0.17767632007599 0
vt 0.00828168541193 0.19727504253387 0
vt 0.20426979660988 0.19727504253387 0
vt 0.20426979660988 0.17767632007599 0
vt 0.6328689455986 0.20635735988617 0
vt 0.6328689455986 0.22595620155334 0
vt 0.76352763175964 0.22595620155334 0
vt 0.76352763175964 0.20635735988617 0
vt 0.22083294391632 0.17767632007599 0
vt 0.22083294391632 0.19727504253387 0
vt 0.41682106256485 0.19727504253387 0
vt 0.41682106256485 0.17767632007599 0
vt 0.6328689455986 0.17019546031952 0
vt 0.6328689455986 0.18979430198669 0
vt 0.76352763175964 0.18979430198669 0
vt 0.76352763175964 0.17019546031952 0
vt 0.02134754322469 0.21383821964264 0
vt 0.02134754322469 0.2530357837677 0
vt 0.49171844124794 0.2530357837677 0
vt 0.49171844124794 0.21383821964264 0
vt 0.52134746313095 0.43595778942108 0
vt 0.52134746313095 0.56661635637283 0
vt 0.7173353433609 0.56661635637283 0
vt 0.7173353433609 0.43595778942108 0
vt 0.52134746313095 0.58317947387695 0
vt 0.56707799434662 0.62891000509262 0
vt 0.67160487174988 0.62891000509262 0
vt 0.7173353433609 0.58317947387695 0
vt 0.67160487174988 0.66810756921768 0
vt 0.7173353433609 0.71383810043335 0
vt 0.56707799434662 0.66810756921768 0
vt 0.52134746313095 0.71383810043335 0
vt 0.20426949858665 0.63894021511078 0
vt 0.20426949858665 0.70429402589798 0
vt 0.30879640579224 0.70429402589798 0
vt 0.30879640579224 0.63894021511078 0
vt 0.68862962722778 0.24251937866211 0
vt 0.68862962722778 0.30787312984467 0
vt 0.72782725095749 0.30787312984467 0
vt 0.72782725095749 0.24251937866211 0
vt 0.20426952838898 0.26959896087646 0
vt 0.20426952838898 0.33495271205902 0
vt 0.30879640579224 0.33495271205902 0
vt 0.30879640579224 0.26959896087646 0
vt 0.6328689455986 0.24251937866211 0
vt 0.6328689455986 0.30787312984467 0
vt 0.67206650972366 0.30787312984467 0
vt 0.67206650972366 0.24251937866211 0
vt 0.02134743332863 0.7173353433609 0
vt 0.49171844124794 0.7173353433609 0
vt 0.57710820436478 0.13197028636932 0
vt 0.57710820436478 0.14501166343689 0
vt 0.61630576848984 0.14501166343689 0
vt 0.61630576848984 0.13197028636932 0
vt 0.02134748362005 0.3479939699173 0
vt 0.49171844124794 0.3479939699173 0
vt 0.52134746313095 0.13197028636932 0
vt 0.52134746313095 0.14501166343689 0
vt 0.56054502725601 0.14501166343689 0
vt 0.56054502725601 0.13197028636932 0
vt 0.6328689455986 0.36363387107849 0
vt 0.82885676622391 0.36363387107849 0
vt 0.82885676622391 0.32443630695343 0
vt 0.6328689455986 0.32443630695343 0
vt 0.00828162301332 0.33495271205902 0
vt 0.00828162301332 0.3479939699173 0
vt 0.50478428602219 0.2530357837677 0
vt 0.50478428602219 0.21383821964264 0
vt 0.50478428602219 0.7173353433609 0
vt 0.50478428602219 0.70429402589798 0
vt 0.82885676622391 0.38019704818726 0
vt 0.6328689455986 0.38019704818726 0
vt 0.6328689455986 0.41939461231232 0
vt 0.82885676622391 0.41939461231232 0
vt 0.00828157179058 0.70429402589798 0
vt 0.00828157179058 0.7173353433609 0
vt 0.00828168541193 0.21383821964264 0
vt 0.00828168541193 0.2530357837677 0
vt 0.50478428602219 0.3479939699173 0
vt 0.50478428602219 0.33495271205902 0
vt 0.52134746313095 0.73040121793747 0
vt 0.52134746313095 0.99171841144562 0
vt 0.99171841144562 0.99171841144562 0
vt 0.99171841144562 0.73040121793747 0
vt 0.02134748362005 0.60931122303009 0
vt 0.49171844124794 0.60931122303009 0
vt 0.49171844124794 0.97865259647369 0
vt 0.50478428602219 0.97865259647369 0
vt 0.57710820436478 0.40632879734039 0
vt 0.61630576848984 0.40632879734039 0
vt 0.00828162301332 0.60931122303009 0
vt 0.50478428602219 0.60931122303009 0
vt 0.52134746313095 0.40632879734039 0
vt 0.56054502725601 0.40632879734039 0
vt 0.00828157179058 0.97865259647369 0
vt 0.02134743332863 0.97865259647369 0
vt 0.02134743332863 0.99171841144562 0
vt 0.49171844124794 0.99171841144562 0
vt 0.02134748362005 0.62237703800201 0
vt 0.49171844124794 0.62237703800201 0
vt 0.50478428602219 0.99171841144562 0
vt 0.57710820436478 0.41939461231232 0
vt 0.61630576848984 0.41939461231232 0
vt 0.00828162301332 0.62237703800201 0
vt 0.50478428602219 0.62237703800201 0
vt 0.52134746313095 0.41939461231232 0
vt 0.56054502725601 0.41939461231232 0
vt 0.00828157179058 0.99171841144562 0
# 108 texture coordinates

o comp
usemtl comp
f 3/4/1 4/3/1 2/2/1 1/1/1
f 5/8/2 6/7/2 4/6/2 3/5/2
f 7/12/3 8/11/3 6/10/3 5/9/3
f 1/16/4 2/15/4 8/14/4 7/13/4
f 38/20/5 39/19/5 40/18/5 37/17/5
f 5/24/6 3/23/6 1/22/6 7/21/6
f 4/28/5 10/27/5 9/26/5 2/25/5
f 6/30/5 11/29/5 10/27/5 4/28/5
f 8/32/5 12/31/5 11/29/5 6/30/5
f 2/25/5 9/26/5 12/31/5 8/32/5
f 10/36/1 14/35/1 13/34/1 9/33/1
f 11/40/2 15/39/2 14/38/2 10/37/2
f 12/44/3 16/43/3 15/42/3 11/41/3
f 9/48/4 13/47/4 16/46/4 12/45/4
f 14/35/1 18/50/1 17/49/1 13/34/1
f 22/54/2 24/53/2 23/52/2 21/51/2
f 16/43/3 20/56/3 19/55/3 15/42/3
f 25/60/4 27/59/4 28/58/4 26/57/4
f 15/64/6 22/63/6 21/62/6 14/61/6
f 19/55/3 24/66/3 22/65/3 15/42/3
f 38/20/5 41/68/5 42/67/5 39/19/5
f 14/35/1 21/70/1 23/69/1 18/50/1
f 13/74/6 25/73/6 26/72/6 16/71/6
f 17/49/1 27/76/1 25/75/1 13/34/1
f 40/18/5 44/78/5 43/77/5 37/17/5
f 16/43/3 26/80/3 28/79/3 20/56/3
f 18/84/1 30/83/1 29/82/1 17/81/1
f 20/56/3 32/86/3 31/85/3 19/55/3
f 23/69/1 33/88/1 30/87/1 18/50/1
f 24/53/2 34/90/2 33/89/2 23/52/2
f 19/55/3 31/85/3 34/91/3 24/66/3
f 28/79/3 36/92/3 32/86/3 20/56/3
f 27/59/4 35/94/4 36/93/4 28/58/4
f 17/49/1 29/96/1 35/95/1 27/76/1
f 30/87/1 38/98/1 37/97/1 29/96/1
f 32/86/3 40/100/3 39/99/3 31/85/3
f 33/88/1 41/101/1 38/98/1 30/87/1
f 34/90/2 42/103/2 41/102/2 33/89/2
f 31/85/3 39/99/3 42/104/3 34/91/3
f 36/92/3 44/105/3 40/100/3 32/86/3
f 35/94/4 43/107/4 44/106/4 36/93/4
f 29/96/1 37/97/1 43/108/1 35/95/1

