# WaveFront *.obj file (generated by CINEMA 4D)

mtllib ./memory.mtl

v -20 -0.00000000000016 20
v -20 80 20
v 20 -0.00000000000016 20
v 20 80 20
v 20 -0.00000000000016 -20
v 20 80 -20
v -20 -0.00000000000016 -20
v -20 80 -20
# 8 vertices

vn 0 0 1
vn 1 0 0
vn 0 0 -1
vn -1 0 0
vn 0 1 0
vn 0 -1 0
# 6 normals

vt 0.00991391483694 0.50766336917877 0
vt 0.00991391483694 0.99233663082123 0
vt 0.32341942191124 0.99233663082123 0
vt 0.32341942191124 0.50766336917877 0
vt 0.67658060789108 0.50766336917877 0
vt 0.67658060789108 0.99233663082123 0
vt 0.9900860786438 0.99233663082123 0
vt 0.9900860786438 0.50766336917877 0
vt 0.34324723482132 0.50766336917877 0
vt 0.34324723482132 0.99233663082123 0
vt 0.65675276517868 0.99233663082123 0
vt 0.65675276517868 0.50766336917877 0
vt 0.00991391483694 0.00766336917877 0
vt 0.00991391483694 0.49233663082123 0
vt 0.32341942191124 0.49233663082123 0
vt 0.32341942191124 0.00766336917877 0
vt 0.34324723482132 0.25 0
vt 0.34324723482132 0.49233663082123 0
vt 0.65675276517868 0.49233663082123 0
vt 0.65675276517868 0.25 0
vt 0.67658060789108 0.25 0
vt 0.67658060789108 0.49233663082123 0
vt 0.9900860786438 0.49233663082123 0
vt 0.9900860786438 0.25 0
# 24 texture coordinates

o memory
usemtl memory
f 3/4/1 4/3/1 2/2/1 1/1/1
f 5/8/2 6/7/2 4/6/2 3/5/2
f 7/12/3 8/11/3 6/10/3 5/9/3
f 1/16/4 2/15/4 8/14/4 7/13/4
f 4/20/5 6/19/5 8/18/5 2/17/5
f 5/24/6 3/23/6 1/22/6 7/21/6

