# WaveFront *.obj file (generated by CINEMA 4D)

mtllib ./picture.mtl

v 50 0.00000000006713 2.5
v 50 150 2.5
v 50 0.00000000006713 -2.5
v 50 150 -2.5
v -50 0.00000000006713 -2.5
v -50 150 -2.5
v -50 0.00000000006713 2.5
v -50 150 2.5
# 8 vertices

vn 1 0 0
vn 0 0 -1
vn -1 0 0
vn 0 0 1
vn 0 1 0
vn 0 -1 0
# 6 normals

vt 0.93134224414825 0.11131167411804 0
vt 0.93134224414825 0.98944616317749 0
vt 0.95362168550491 0.98944616317749 0
vt 0.95362168550491 0.11131167411804 0
vt 0.00803296454251 0.11131167411804 0
vt 0.00803296454251 0.98944616317749 0
vt 0.45362168550491 0.98944616317749 0
vt 0.45362168550491 0.11131167411804 0
vt 0.96968758106232 0.11131167411804 0
vt 0.96968758106232 0.98944616317749 0
vt 0.99196702241898 0.98944616317749 0
vt 0.99196702241898 0.11131167411804 0
vt 0.46968761086464 0.11131167411804 0
vt 0.46968761086464 0.98944616317749 0
vt 0.91527628898621 0.98944616317749 0
vt 0.91527628898621 0.11131167411804 0
vt 0.45362168550491 0.06093275547028 0
vt 0.00803296454251 0.06093275547028 0
vt 0.00803296454251 0.09020388126373 0
vt 0.45362168550491 0.09020388126373 0
vt 0.00803296454251 0.03982508182526 0
vt 0.45362168550491 0.03982508182526 0
vt 0.45362168550491 0.01055383682251 0
vt 0.00803296454251 0.01055383682251 0
# 24 texture coordinates

o picture
usemtl picture
f 3/4/1 4/3/1 2/2/1 1/1/1
f 5/8/2 6/7/2 4/6/2 3/5/2
f 7/12/3 8/11/3 6/10/3 5/9/3
f 1/16/4 2/15/4 8/14/4 7/13/4
f 4/20/5 6/19/5 8/18/5 2/17/5
f 5/24/6 3/23/6 1/22/6 7/21/6

