# WaveFront *.obj file (generated by CINEMA 4D)

mtllib ./power.mtl

v -75 -0.00000000000001 75
v -75 80 75
v 75 -0.00000000000001 75
v 75 80 75
v 75 -0.00000000000001 -75
v 75 80 -75
v -75 -0.00000000000001 -75
v -75 80 -75
# 8 vertices

vn 0 0 1
vn 1 0 0
vn 0 0 -1
vn -1 0 0
vn 0 1 0
vn 0 -1 0
# 6 normals

vt 0.50976812839508 0.75885486602783 0
vt 0.50976812839508 0.99114513397217 0
vt 0.99023187160492 0.99114513397217 0
vt 0.99023187160492 0.75885486602783 0
vt 0.50976812839508 0.25885486602783 0
vt 0.50976812839508 0.49114513397217 0
vt 0.99023187160492 0.49114513397217 0
vt 0.99023187160492 0.25885486602783 0
vt 0.50976812839508 0.50885486602783 0
vt 0.50976812839508 0.74114513397217 0
vt 0.99023187160492 0.74114513397217 0
vt 0.99023187160492 0.50885486602783 0
vt 0.50976812839508 0.00885486602783 0
vt 0.50976812839508 0.24114513397217 0
vt 0.99023187160492 0.24114513397217 0
vt 0.99023187160492 0.00885486602783 0
vt 0.00976811721921 0.55560094118118 0
vt 0.00976811721921 0.99114513397217 0
vt 0.49023187160492 0.99114513397217 0
vt 0.49023187160492 0.55560094118118 0
vt 0.00976811721921 0.10234701633453 0
vt 0.00976811721921 0.53789114952087 0
vt 0.49023187160492 0.53789114952087 0
vt 0.49023187160492 0.10234701633453 0
# 24 texture coordinates

o power
usemtl power
f 3/4/1 4/3/1 2/2/1 1/1/1
f 5/8/2 6/7/2 4/6/2 3/5/2
f 7/12/3 8/11/3 6/10/3 5/9/3
f 1/16/4 2/15/4 8/14/4 7/13/4
f 4/20/5 6/19/5 8/18/5 2/17/5
f 5/24/6 3/23/6 1/22/6 7/21/6

