# WaveFront *.obj file (generated by CINEMA 4D)

mtllib ./room2.mtl

v 0.00000000000005 -0.00000000000001 20
v 0.00000000000005 20 20
v 20 -0.00000000000001 20
v 20 20 20
v 20 -0.00000000000001 -0.00000000000001
v 20 20 -0.00000000000001
v 0.00000000000005 -0.00000000000001 -0.00000000000001
v 0.00000000000005 20 -0.00000000000001
v -0.00000000000001 -0.00000000000001 750
v -0.00000000000001 20 750
v 20 -0.00000000000001 750
v 20 20 750
v 520 -0.00000000000001 20
v 520 20 20
v 520 -0.00000000000001 -0.00000000000001
v 520 20 -0.00000000000001
v 520 -0.00000000000001 750
v 520 20 750
v 0.00000000000005 320 20
v 20 320 20
v 20 320 -0.00000000000001
v 0.00000000000005 320 -0.00000000000001
v -0.00000000000001 320 750
v 20 320 750
v 520 320 20
v 520 320 -0.00000000000001
# 26 vertices

vn 0 0 1
vn 1 0 0
vn 0 0 -1
vn -1 0 0
vn -1 0 -0
vn 0 1 0
vn 0 -1 0
vn -1 0 -0
# 8 normals

vt 0.59965372085571 0.56797218322754 0
vt 0.59965372085571 0.58095061779022 0
vt 0.61039763689041 0.58095061779022 0
vt 0.61039763689041 0.56797218322754 0
vt 0.68533211946487 0.23735105991364 0
vt 0.68533211946487 0.25032949447632 0
vt 0.69607597589493 0.25032949447632 0
vt 0.69607597589493 0.23735105991364 0
vt 0.98106181621552 0.23735105991364 0
vt 0.98106181621552 0.25032949447632 0
vt 0.99180573225021 0.25032949447632 0
vt 0.99180573225021 0.23735105991364 0
vt 0.29318010807037 0.00989854335785 0
vt 0.29318010807037 0.02287709712982 0
vt 0.30392399430275 0.02287709712982 0
vt 0.30392399430275 0.00989854335785 0
vt 0.00819428544492 0.97712296247482 0
vt 0.00819428544492 0.99010145664215 0
vt 0.0189381763339 0.99010145664215 0
vt 0.0189381763339 0.97712296247482 0
vt 0.30392399430275 0.50340938568115 0
vt 0.30392399430275 0.51638782024384 0
vt 0.31466788053513 0.51638782024384 0
vt 0.31466788053513 0.50340938568115 0
vt 0.30392399430275 0.99010145664215 0
vt 0.31466788053513 0.99010145664215 0
vt 0.29318010807037 0.23735105991364 0
vt 0.29318010807037 0.25032949447632 0
vt 0.0189381763339 0.50340938568115 0
vt 0.00819428544492 0.50340938568115 0
vt 0.69607597589493 0.02287709712982 0
vt 0.69607597589493 0.00989854335785 0
vt 0.5832651257515 0.51638782024384 0
vt 0.5832651257515 0.50340938568115 0
vt 0.71246457099915 0.23735105991364 0
vt 0.71246457099915 0.25032949447632 0
vt 0.28753542900085 0.99010145664215 0
vt 0.28753542900085 0.97712296247482 0
vt 0.00819428544492 0.48361217975616 0
vt 0.27679154276848 0.48361217975616 0
vt 0.27679154276848 0.00989854335785 0
vt 0.00819428544492 0.00989854335785 0
vt 0.87899488210678 0.58095061779022 0
vt 0.87899488210678 0.56797218322754 0
vt 0.5832651257515 0.99010145664215 0
vt 0.98106181621552 0.44500637054443 0
vt 0.99180573225021 0.44500637054443 0
vt 0.29318010807037 0.21755385398865 0
vt 0.30392399430275 0.21755385398865 0
vt 0.69607597589493 0.21755385398865 0
vt 0.59965372085571 0.77562749385834 0
vt 0.61039763689041 0.77562749385834 0
vt 0.59965372085571 0.79542458057404 0
vt 0.59965372085571 0.99010145664215 0
vt 0.99180573225021 0.99010145664215 0
vt 0.99180573225021 0.79542458057404 0
vt 0.71246457099915 0.02287709712982 0
vt 0.71246457099915 0.21755385398865 0
vt 0.98106181621552 0.21755385398865 0
vt 0.98106181621552 0.02287709712982 0
vt 0.68533211946487 0.44500637054443 0
vt 0.69607597589493 0.44500637054443 0
vt 0.71246457099915 0.44500637054443 0
# 63 texture coordinates

o room2
usemtl room2
f 11/4/1 12/3/1 10/2/1 9/1/1
f 15/8/2 16/7/2 14/6/2 13/5/2
f 7/12/3 8/11/3 6/10/3 5/9/3
f 1/16/5 2/15/5 8/14/4 7/13/4
f 20/20/6 21/19/6 22/18/6 19/17/6
f 5/24/7 3/23/7 1/22/7 7/21/7
f 3/23/7 11/26/7 9/25/7 1/22/7
f 14/6/2 18/28/2 17/27/2 13/5/2
f 19/17/6 23/30/6 24/29/6 20/20/6
f 1/16/5 9/32/8 10/31/8 2/15/5
f 5/24/7 15/34/7 13/33/7 3/23/7
f 6/10/3 16/36/3 15/35/3 5/9/3
f 20/20/6 25/38/6 26/37/6 21/19/6
f 12/42/6 18/41/6 14/40/6 4/39/6
f 11/4/1 17/44/1 18/43/1 12/3/1
f 3/23/7 13/33/7 17/45/7 11/26/7
f 8/11/3 22/47/3 21/46/3 6/10/3
f 2/15/5 19/49/5 22/48/4 8/14/4
f 10/31/8 23/50/8 19/49/5 2/15/5
f 12/3/1 24/52/1 23/51/1 10/2/1
f 4/56/2 20/55/2 24/54/2 12/53/2
f 14/60/1 25/59/1 20/58/1 4/57/1
f 16/7/2 26/62/2 25/61/2 14/6/2
f 6/10/3 21/46/3 26/63/3 16/36/3

